<svg xmlns="http://www.w3.org/2000/svg" xmlns:xlink="http://www.w3.org/1999/xlink" viewBox="0 0 467 467"><defs><style>.cls-1{fill:#fff;}.cls-2,.cls-3{fill:#1a0a67;}.cls-2{stroke:#1a0a67;stroke-linejoin:round;stroke-width:15px;}.cls-2,.cls-5{stroke-linecap:round;}.cls-4{fill:url(#New_Gradient_Swatch);}.cls-5{fill:#7133da;stroke:#06011d;stroke-miterlimit:10;stroke-width:10px;}</style><linearGradient id="New_Gradient_Swatch" x1="275.59" y1="231.64" x2="424" y2="231.64" gradientUnits="userSpaceOnUse"><stop offset="0" stop-color="#1a0a67"/><stop offset="1" stop-color="#06011d"/></linearGradient></defs><g id="Layer_2" data-name="Layer 2"><g id="Layer_18" data-name="Layer 18"><rect class="cls-1" width="467" height="467" rx="80"/><path class="cls-2" d="M191.84,150.54l1.06-2.69q7.22-16.47,19.94-17.81h1.49a16.61,16.61,0,0,1,5.73,1q8.48,3,14.11,13.62a54.9,54.9,0,0,1,6,24.36v.34a29.93,29.93,0,0,1,.21,3.7V330.69H222V173.06a9.84,9.84,0,0,0-.22-2,16,16,0,0,0-1.59-7.23,8.12,8.12,0,0,0-4.13-4.2,4.71,4.71,0,0,0-1.7-.33c-2.27,0-4.17,1.46-5.73,4.37l-.42,1L170.41,296.07l-1.27,4.2c-.71,2.36-1.2,4-1.49,5.05s-.77,2.69-1.48,5a45.62,45.62,0,0,1-1.91,5.38c-.57,1.23-1.2,2.69-1.91,4.36a39.26,39.26,0,0,1-2.12,4.38,10,10,0,0,1-2.33,2.85,11,11,0,0,1-8.38,3.36,11.71,11.71,0,0,1-8.6-3.36,12.53,12.53,0,0,1-2.12-2.85,39.26,39.26,0,0,1-2.12-4.38c-.71-1.67-1.35-3.13-1.91-4.36a43.86,43.86,0,0,1-1.91-5.38c-.71-2.35-1.2-4-1.48-5s-.78-2.69-1.49-5.05l-1.27-4.2L90.85,164.65l-.42-1q-2.34-4.36-5.73-4.37a4.71,4.71,0,0,0-1.7.33,8.12,8.12,0,0,0-4.13,4.2A16,16,0,0,0,77.28,171a9.19,9.19,0,0,0-.22,2V330.69H58.61V173.06a35.91,35.91,0,0,1,.21-3.7V169a54.77,54.77,0,0,1,6.05-24.36Q70.48,134.07,79,131a16.61,16.61,0,0,1,5.73-1h1.49q12.72,1.34,19.94,17.81l1.06,2.69,42.22,146.88Z"/><path class="cls-3" d="M422,251q0,85.82-91.82,85.82-52.59,0-52.59-57.39a109.29,109.29,0,0,1,.61-11.33q3.23-31.41,14.56-31.41c4.31,0,7.64,3.61,7.28,10.86-1.57,31.23,4.31,37.8,12,45s47.59,6,65.34-5.75c14.74-9.73,19.85-20.17,20.76-27.05,2.07-15.56-60-86.32-62.34-91.35l4.09-38.26a4.73,4.73,0,0,1,7.08-3.08,215.51,215.51,0,0,1,50.16,52.49Q422,216.52,422,251Z"/><path class="cls-4" d="M344.61,126.43a3.94,3.94,0,0,1,2.35.71,215.51,215.51,0,0,1,50.16,52.49Q422,216.52,422,251q0,85.82-91.82,85.82-52.59,0-52.59-57.39a109.29,109.29,0,0,1,.61-11.33q3.23-31.41,14.56-31.41c4.31,0,7.64,3.61,7.28,10.86-1.57,31.23,4.31,37.8,12,45,3.09,2.92,11.54,4.45,21.68,4.45,14.78,0,33.13-3.25,43.66-10.2,14.74-9.73,19.85-20.17,20.76-27.05,2.07-15.56-60-86.32-62.34-91.35l4.09-38.26a4.8,4.8,0,0,1,4.73-3.79m0-2h0a6.81,6.81,0,0,0-6.68,5.35,1.66,1.66,0,0,0,0,.22l-4.1,38.26a2,2,0,0,0,.17,1.05c.67,1.46,4.11,5.75,11.83,15.33,9.4,11.66,22.28,27.64,32.82,42.4,15.23,21.31,17.94,29.45,17.53,32.53-.55,4.12-3.58,14.88-19.88,25.64-11,7.28-29.83,9.87-42.56,9.87-9.83,0-17.79-1.53-20.3-3.9-7-6.55-12.94-12.21-11.37-43.5.28-5.62-1.49-8.72-3-10.33a8.45,8.45,0,0,0-6.26-2.63c-8.84,0-14.25,10.86-16.55,33.2a113.52,113.52,0,0,0-.62,11.54c0,39.41,18.36,59.39,54.59,59.39C392.43,338.85,424,309.3,424,251c0-23.31-8.49-47.71-25.22-72.52a218.53,218.53,0,0,0-50.62-53,6,6,0,0,0-3.55-1.11Z"/><circle class="cls-5" cx="67.18" cy="325.21" r="24.39"/></g></g></svg>