<?xml version="1.0" standalone="no"?>
<!DOCTYPE svg PUBLIC "-//W3C//DTD SVG 20010904//EN"
 "http://www.w3.org/TR/2001/REC-SVG-20010904/DTD/svg10.dtd">
<svg version="1.0" xmlns="http://www.w3.org/2000/svg"
 width="512.000000pt" height="512.000000pt" viewBox="0 0 512.000000 512.000000"
 preserveAspectRatio="xMidYMid meet">
<metadata>
Created by potrace 1.14, written by Peter Selinger 2001-2017
</metadata>
<g transform="translate(0.000000,512.000000) scale(0.100000,-0.100000)"
fill="#000000" stroke="none">
<path d="M871 3770 c-127 -26 -232 -149 -287 -335 -16 -55 -18 -129 -21 -834
l-4 -775 -39 -33 c-45 -39 -96 -137 -105 -204 -13 -93 34 -211 110 -278 61
-54 119 -74 210 -75 97 -1 150 20 224 89 69 64 95 128 96 230 0 95 -21 150
-84 218 l-41 44 1 709 0 709 120 -415 c66 -228 170 -586 230 -795 128 -443
165 -532 239 -577 94 -58 196 -46 270 31 75 77 64 43 456 1410 l99 344 5 -887
5 -888 28 -24 c26 -23 35 -24 153 -24 125 0 126 0 155 29 l29 29 0 910 c0
1023 0 1020 -69 1166 -73 154 -169 228 -300 230 -124 1 -231 -76 -297 -215
-17 -35 -115 -359 -219 -719 -103 -360 -191 -658 -194 -662 -4 -4 -91 288
-195 650 -108 379 -202 687 -220 727 -77 163 -211 244 -355 215z"/>
<path d="M3743 3748 c-33 -16 -40 -46 -63 -275 l-22 -213 170 -212 c369 -463
512 -677 512 -767 0 -79 -92 -204 -204 -279 -109 -71 -276 -112 -466 -113
-157 0 -213 15 -263 70 -74 82 -87 131 -95 353 -7 177 -7 178 -34 205 -33 33
-90 37 -131 10 -107 -70 -161 -472 -97 -721 47 -187 156 -308 327 -368 63 -21
83 -23 283 -22 238 0 319 13 476 73 345 133 528 460 511 911 -11 289 -121 563
-346 865 -83 111 -332 366 -427 438 -67 51 -98 61 -131 45z"/>
</g>
</svg>
